<mxfile host="app.diagrams.net" agent="Mozilla/5.0 (Windows NT 10.0; Win64; x64) AppleWebKit/537.36 (KHTML, like Gecko) Chrome/129.0.0.0 Safari/537.36" border="50" scale="3" compressed="false" locked="false" version="24.7.16">
  <diagram name="Blank" id="YmL12bMKpDGza6XwsDPr">
    <mxGraphModel dx="1962" dy="818" grid="0" gridSize="10" guides="1" tooltips="1" connect="1" arrows="1" fold="1" page="0" pageScale="1" pageWidth="827" pageHeight="1169" background="none" math="1" shadow="0">
      <root>
        <mxCell id="X5NqExCQtvZxIxQ7pmgY-0" />
        <mxCell id="1" parent="X5NqExCQtvZxIxQ7pmgY-0" />
        <mxCell id="JXnUZitA_mF5ZHJQ16q1-7" style="edgeStyle=orthogonalEdgeStyle;rounded=0;orthogonalLoop=1;jettySize=auto;html=1;" edge="1" parent="1" source="JXnUZitA_mF5ZHJQ16q1-1">
          <mxGeometry relative="1" as="geometry">
            <mxPoint x="204.39996337890625" y="310" as="targetPoint" />
            <Array as="points">
              <mxPoint x="-254" y="310" />
            </Array>
          </mxGeometry>
        </mxCell>
        <mxCell id="JXnUZitA_mF5ZHJQ16q1-8" style="edgeStyle=orthogonalEdgeStyle;rounded=0;orthogonalLoop=1;jettySize=auto;html=1;" edge="1" parent="1" source="JXnUZitA_mF5ZHJQ16q1-1">
          <mxGeometry relative="1" as="geometry">
            <mxPoint x="765.199951171875" y="474.79998779296875" as="targetPoint" />
            <Array as="points">
              <mxPoint x="-254" y="475" />
            </Array>
          </mxGeometry>
        </mxCell>
        <mxCell id="JXnUZitA_mF5ZHJQ16q1-1" value="Main page" style="ellipse;whiteSpace=wrap;html=1;" vertex="1" parent="1">
          <mxGeometry x="-314" y="85" width="120" height="80" as="geometry" />
        </mxCell>
        <mxCell id="JXnUZitA_mF5ZHJQ16q1-2" value="Create party page" style="ellipse;whiteSpace=wrap;html=1;" vertex="1" parent="1">
          <mxGeometry x="139" y="85" width="120" height="80" as="geometry" />
        </mxCell>
        <mxCell id="JXnUZitA_mF5ZHJQ16q1-3" value="Party page" style="ellipse;whiteSpace=wrap;html=1;" vertex="1" parent="1">
          <mxGeometry x="705" y="85" width="120" height="80" as="geometry" />
        </mxCell>
        <mxCell id="JXnUZitA_mF5ZHJQ16q1-4" value="" style="endArrow=none;dashed=1;html=1;dashPattern=1 3;strokeWidth=2;rounded=0;" edge="1" parent="1">
          <mxGeometry width="50" height="50" relative="1" as="geometry">
            <mxPoint x="-28" y="670" as="sourcePoint" />
            <mxPoint x="-28" y="67" as="targetPoint" />
          </mxGeometry>
        </mxCell>
        <mxCell id="JXnUZitA_mF5ZHJQ16q1-5" value="" style="endArrow=none;dashed=1;html=1;dashPattern=1 3;strokeWidth=2;rounded=0;" edge="1" parent="1">
          <mxGeometry width="50" height="50" relative="1" as="geometry">
            <mxPoint x="488" y="684" as="sourcePoint" />
            <mxPoint x="486" y="35" as="targetPoint" />
          </mxGeometry>
        </mxCell>
        <mxCell id="JXnUZitA_mF5ZHJQ16q1-9" value="join party" style="text;html=1;align=center;verticalAlign=middle;whiteSpace=wrap;rounded=0;" vertex="1" parent="1">
          <mxGeometry x="177" y="448" width="60" height="30" as="geometry" />
        </mxCell>
        <mxCell id="JXnUZitA_mF5ZHJQ16q1-10" value="create party" style="text;html=1;align=center;verticalAlign=middle;whiteSpace=wrap;rounded=0;" vertex="1" parent="1">
          <mxGeometry x="-125" y="285" width="78" height="30" as="geometry" />
        </mxCell>
        <mxCell id="JXnUZitA_mF5ZHJQ16q1-12" value="" style="endArrow=classic;html=1;rounded=0;dashed=1;" edge="1" parent="1">
          <mxGeometry width="50" height="50" relative="1" as="geometry">
            <mxPoint x="205" y="311" as="sourcePoint" />
            <mxPoint x="741" y="314" as="targetPoint" />
          </mxGeometry>
        </mxCell>
        <mxCell id="JXnUZitA_mF5ZHJQ16q1-13" value="on successful praty creation" style="text;html=1;align=center;verticalAlign=middle;whiteSpace=wrap;rounded=0;" vertex="1" parent="1">
          <mxGeometry x="285" y="285" width="215" height="30" as="geometry" />
        </mxCell>
        <mxCell id="JXnUZitA_mF5ZHJQ16q1-14" value="" style="curved=1;endArrow=classic;html=1;rounded=0;" edge="1" parent="1">
          <mxGeometry width="50" height="50" relative="1" as="geometry">
            <mxPoint x="1077" y="375" as="sourcePoint" />
            <mxPoint x="1081" y="364" as="targetPoint" />
            <Array as="points">
              <mxPoint x="1090" y="423" />
              <mxPoint x="1052" y="449" />
              <mxPoint x="959" y="449" />
              <mxPoint x="859" y="383" />
              <mxPoint x="904" y="272" />
              <mxPoint x="1074" y="253" />
            </Array>
          </mxGeometry>
        </mxCell>
        <mxCell id="JXnUZitA_mF5ZHJQ16q1-15" value="user interactions" style="text;html=1;align=center;verticalAlign=middle;whiteSpace=wrap;rounded=0;" vertex="1" parent="1">
          <mxGeometry x="920" y="345" width="128" height="30" as="geometry" />
        </mxCell>
      </root>
    </mxGraphModel>
  </diagram>
</mxfile>
